<svg width="144" height="45" viewBox="0 0 144 45" fill="none" xmlns="http://www.w3.org/2000/svg">
<path d="M31.3495 0.21033C33.9028 0.101432 42.9275 0.343152 45.1519 1.14305C46.0804 1.46978 46.9061 2.03512 47.5471 2.78224C48.1828 3.50988 48.6492 4.40475 49.1137 5.25025C49.7326 6.38276 50.3307 7.52656 50.9076 8.68111C51.7482 10.3317 52.6463 12.0196 53.44 13.6869C53.6545 13.5734 53.7849 13.5238 54.0105 13.438C53.9997 12.6662 53.8849 10.7382 54.3406 10.2401C55.3076 9.18312 59.1494 10.0985 60.092 10.8721C60.8841 11.413 61.2906 13.2319 60.5812 13.9318C59.6671 14.8337 56.8382 14.7917 55.618 14.8667C55.4284 14.9852 55.2816 15.1207 55.1123 15.2657C58.8129 17.331 61.3926 19.583 61.5542 24.1291C61.605 25.5569 61.587 26.9824 61.5854 28.4098L61.5874 39.6369C61.5874 39.8697 61.5814 40.2334 61.5878 40.431C61.6522 42.5278 61.6714 44.2657 58.931 44.0276C58.6873 44.0064 58.046 44.0248 57.7548 44.0244L53.1288 44.0188C52.5443 44.0144 52.207 43.94 51.7638 43.4903C51.0721 42.7894 51.1893 41.7705 51.2049 40.8535C49.6922 40.7771 47.7595 40.8439 46.2128 40.8443L33.1406 40.8347C32.6778 40.8347 31.7588 40.8603 31.3415 40.8035C31.1551 40.6359 31.2231 38.0742 31.2235 37.6114L31.2251 10.0003C31.2259 7.04904 31.2155 4.09566 31.2243 1.14457C31.2251 0.830394 31.2055 0.482176 31.3495 0.21033Z" fill="#1F9B4B"/>
<path d="M42.1365 19.0025C42.2842 19.2145 40.5443 25.6666 40.4022 26.4775C41.7345 26.4787 43.0667 26.4951 44.3985 26.5259C41.9301 29.796 39.6833 33.0034 37.0201 36.1687L36.9629 36.1915C36.9241 36.1271 38.5259 29.7624 38.6539 29.1183C37.3713 29.0975 36.0891 29.0851 34.8065 29.0811C36.3384 26.8311 37.9122 24.6104 39.5277 22.42C40.3358 21.325 41.2764 20.0516 42.1365 19.0025Z" fill="white"/>
<path d="M57.2507 21.4554C58.0784 21.333 58.1964 22.3581 58.1716 22.9557C58.1304 23.9295 57.7495 24.9832 57.0186 25.6525C56.3237 26.2886 55.2703 26.5715 54.3738 26.7731C52.7123 27.122 51.0004 27.14 49.3105 27.0872C48.7668 27.032 48.6536 27.0148 48.2644 26.6363C49.3637 24.2391 54.7887 21.9925 57.2507 21.4554Z" fill="white"/>
<path d="M57.5427 31.8576C57.5975 31.8444 57.5623 31.8484 57.6483 31.864C57.5911 32.0052 57.2067 32.3937 57.0782 32.5025C54.9611 34.298 51.849 35.1074 49.2029 35.6859C49.1117 35.7063 49.1597 35.7051 49.0585 35.6835C49.1305 35.5274 49.5894 35.2198 49.7566 35.1022C51.9698 33.5431 54.9515 32.5705 57.5427 31.8576Z" fill="white"/>
<path d="M76.6539 10.3803V12.7435H69.8621V10.3803H76.6539ZM70.9562 0V12.7435H67.8841V0H70.9562ZM75.7787 5.05888V7.34325H69.8621V5.05888H75.7787ZM76.6802 0V2.37189H69.8621V0H76.6802Z" fill="#1F9B4B"/>
<path d="M83.3125 9.7414L85.9645 0H89.4042L85.1068 12.7435H82.8837L83.3125 9.7414ZM80.9056 0L83.5576 9.7414L84.004 12.7435H81.7546L77.4834 0H80.9056Z" fill="#1F9B4B"/>
<path d="M67.8841 15.5674H72.8992C73.8794 15.5674 74.7313 15.7133 75.4549 16.005C76.1784 16.2968 76.7356 16.7286 77.1266 17.3004C77.5234 17.8722 77.7217 18.5782 77.7217 19.4185C77.7217 20.1478 77.608 20.7576 77.3804 21.2477C77.1528 21.7378 76.8348 22.1434 76.4264 22.4643C76.0238 22.7794 75.5541 23.039 75.0172 23.2432L74.0107 23.8122H69.8008L69.7833 21.4403H72.8992C73.2901 21.4403 73.614 21.3702 73.8707 21.2302C74.1274 21.0902 74.32 20.8918 74.4483 20.635C74.5825 20.3725 74.6497 20.0603 74.6497 19.6985C74.6497 19.3309 74.5825 19.0158 74.4483 18.7533C74.3141 18.4907 74.1158 18.2894 73.8532 18.1494C73.5965 18.0093 73.2784 17.9393 72.8992 17.9393H70.9562V28.3109H67.8841V15.5674ZM74.8597 28.3109L72.0414 22.6743L75.2973 22.6568L78.1506 28.1796V28.3109H74.8597Z" fill="white"/>
<path d="M86.2038 15.5674H89.2759V23.8909C89.2759 24.8829 89.0687 25.7231 88.6545 26.4116C88.2402 27.0943 87.6596 27.6107 86.9127 27.9608C86.1659 28.3109 85.2877 28.4859 84.2783 28.4859C83.2805 28.4859 82.4023 28.3109 81.6438 27.9608C80.8911 27.6107 80.3018 27.0943 79.8758 26.4116C79.4557 25.7231 79.2456 24.8829 79.2456 23.8909V15.5674H82.3265V23.8909C82.3265 24.4161 82.4023 24.8449 82.554 25.1775C82.7058 25.5043 82.9275 25.7435 83.2192 25.8952C83.511 26.0469 83.864 26.1228 84.2783 26.1228C84.6984 26.1228 85.0514 26.0469 85.3373 25.8952C85.6232 25.7435 85.8391 25.5043 85.985 25.1775C86.1309 24.8449 86.2038 24.4161 86.2038 23.8909V15.5674Z" fill="white"/>
<path d="M101.565 15.5674V28.3109H98.5019L93.9944 20.3812V28.3109H90.9223V15.5674H93.9944L98.5019 23.4971V15.5674H101.565Z" fill="white"/>
<path d="M113.863 15.5674V28.3109H110.8L106.292 20.3812V28.3109H103.22V15.5674H106.292L110.8 23.4971V15.5674H113.863Z" fill="white"/>
<path d="M118.783 15.5674V28.3109H115.72V15.5674H118.783Z" fill="white"/>
<path d="M131.3 15.5674V28.3109H128.237L123.729 20.3812V28.3109H120.657V15.5674H123.729L128.237 23.4971V15.5674H131.3Z" fill="white"/>
<path d="M143.379 21.5015V26.7354C143.163 26.9747 142.831 27.2314 142.382 27.5057C141.938 27.7741 141.378 28.0045 140.701 28.1971C140.024 28.3896 139.228 28.4859 138.312 28.4859C137.466 28.4859 136.698 28.3517 136.01 28.0833C135.321 27.8091 134.729 27.4094 134.233 26.8842C133.743 26.3533 133.364 25.7056 133.095 24.9412C132.833 24.171 132.701 23.2899 132.701 22.298V21.589C132.701 20.5971 132.836 19.716 133.104 18.9458C133.372 18.1756 133.749 17.5279 134.233 17.0028C134.723 16.4718 135.298 16.0692 135.957 15.795C136.622 15.5207 137.352 15.3836 138.145 15.3836C139.318 15.3836 140.272 15.5703 141.007 15.9438C141.743 16.3114 142.3 16.8219 142.679 17.4754C143.058 18.1231 143.289 18.8729 143.371 19.7248H140.421C140.363 19.3047 140.252 18.9487 140.088 18.657C139.931 18.3594 139.703 18.1348 139.406 17.9831C139.108 17.8255 138.723 17.7468 138.25 17.7468C137.883 17.7468 137.547 17.8255 137.244 17.9831C136.946 18.1406 136.692 18.3798 136.482 18.7008C136.272 19.0158 136.109 19.4126 135.992 19.8911C135.881 20.3695 135.826 20.9297 135.826 21.5715V22.298C135.826 22.934 135.879 23.4912 135.984 23.9697C136.094 24.4482 136.258 24.8479 136.474 25.1688C136.695 25.4839 136.975 25.7231 137.314 25.8865C137.658 26.044 138.064 26.1228 138.53 26.1228C138.857 26.1228 139.137 26.0965 139.371 26.044C139.604 25.9857 139.797 25.9156 139.948 25.834C140.106 25.7464 140.226 25.6647 140.307 25.5889V23.6108H138.172V21.5015H143.379Z" fill="white"/>
<path d="M75.131 39.5634H78.1944C78.1535 40.4503 77.9143 41.2321 77.4767 41.909C77.0391 42.5859 76.4322 43.1139 75.6562 43.4932C74.886 43.8666 73.9757 44.0533 72.9254 44.0533C72.0735 44.0533 71.3121 43.9104 70.6411 43.6245C69.9759 43.3386 69.4099 42.9272 68.9431 42.3904C68.4821 41.8536 68.1291 41.203 67.8841 40.4386C67.6448 39.6742 67.5252 38.8136 67.5252 37.8566V37.1652C67.5252 36.2083 67.6507 35.3476 67.9016 34.5833C68.1583 33.813 68.5201 33.1595 68.9869 32.6227C69.4595 32.0801 70.0255 31.6658 70.6848 31.3799C71.3442 31.094 72.0765 30.951 72.8817 30.951C73.9903 30.951 74.9268 31.1494 75.6912 31.5462C76.4556 31.943 77.0478 32.4885 77.4679 33.1829C77.888 33.8714 78.136 34.6562 78.2119 35.5373H75.1485C75.1369 35.0588 75.0552 34.6591 74.9035 34.3382C74.7518 34.0114 74.5125 33.7664 74.1858 33.603C73.859 33.4396 73.4243 33.3579 72.8817 33.3579C72.5024 33.3579 72.1727 33.4279 71.8927 33.568C71.6126 33.708 71.3792 33.9297 71.1925 34.2332C71.0057 34.5366 70.8657 34.9304 70.7723 35.4147C70.6848 35.8932 70.6411 36.4709 70.6411 37.1477V37.8566C70.6411 38.5335 70.6819 39.1112 70.7636 39.5896C70.8453 40.0681 70.9766 40.459 71.1575 40.7624C71.3383 41.0659 71.5717 41.2905 71.8576 41.4364C72.1494 41.5764 72.5053 41.6464 72.9254 41.6464C73.3922 41.6464 73.7861 41.5735 74.107 41.4276C74.4279 41.2759 74.6759 41.0483 74.851 40.7449C75.026 40.4357 75.1194 40.0418 75.131 39.5634Z" fill="#1F9B4B"/>
<path d="M90.0137 37.2527V37.7691C90.0137 38.7436 89.8766 39.6188 89.6023 40.3948C89.3339 41.165 88.9517 41.8244 88.4558 42.3729C87.9598 42.9155 87.3734 43.3327 86.6965 43.6245C86.0197 43.9104 85.2728 44.0533 84.4559 44.0533C83.6332 44.0533 82.8805 43.9104 82.1978 43.6245C81.521 43.3327 80.9316 42.9155 80.4298 42.3729C79.9339 41.8244 79.5488 41.165 79.2745 40.3948C79.0061 39.6188 78.8719 38.7436 78.8719 37.7691V37.2527C78.8719 36.2783 79.0061 35.4031 79.2745 34.627C79.5488 33.851 79.931 33.1916 80.4211 32.649C80.9171 32.1005 81.5035 31.6833 82.1803 31.3974C82.863 31.1056 83.6157 30.9598 84.4384 30.9598C85.2553 30.9598 86.0022 31.1056 86.679 31.3974C87.3617 31.6833 87.951 32.1005 88.447 32.649C88.943 33.1916 89.3281 33.851 89.6023 34.627C89.8766 35.4031 90.0137 36.2783 90.0137 37.2527ZM86.8978 37.7691V37.2352C86.8978 36.6051 86.8424 36.0507 86.7316 35.5723C86.6265 35.088 86.469 34.6825 86.2589 34.3557C86.0489 34.0289 85.7892 33.7839 85.48 33.6205C85.1765 33.4513 84.8294 33.3667 84.4384 33.3667C84.03 33.3667 83.6741 33.4513 83.3706 33.6205C83.0672 33.7839 82.8134 34.0289 82.6092 34.3557C82.405 34.6825 82.2503 35.088 82.1453 35.5723C82.0461 36.0507 81.9965 36.6051 81.9965 37.2352V37.7691C81.9965 38.3935 82.0461 38.9478 82.1453 39.4321C82.2503 39.9105 82.405 40.3161 82.6092 40.6487C82.8192 40.9813 83.076 41.2322 83.3794 41.4014C83.6886 41.5706 84.0475 41.6552 84.4559 41.6552C84.8469 41.6552 85.194 41.5706 85.4975 41.4014C85.8009 41.2322 86.0547 40.9813 86.2589 40.6487C86.469 40.3161 86.6265 39.9105 86.7316 39.4321C86.8424 38.9478 86.8978 38.3935 86.8978 37.7691Z" fill="#1F9B4B"/>
<path d="M97.7544 40.4911C97.7544 40.2927 97.7252 40.1148 97.6669 39.9572C97.6085 39.7938 97.5006 39.6421 97.3431 39.5021C97.1855 39.3621 96.9579 39.222 96.6604 39.082C96.3686 38.9361 95.9835 38.7844 95.5051 38.6269C94.9449 38.4401 94.4052 38.2301 93.8859 37.9967C93.3666 37.7575 92.9027 37.4803 92.4942 37.1652C92.0858 36.8443 91.762 36.4709 91.5227 36.0449C91.2835 35.6131 91.1639 35.1113 91.1639 34.5395C91.1639 33.991 91.2864 33.498 91.5315 33.0603C91.7765 32.6169 92.1179 32.2405 92.5555 31.9313C92.999 31.6162 93.5183 31.377 94.1134 31.2136C94.7086 31.0444 95.3592 30.9598 96.0652 30.9598C96.9988 30.9598 97.8215 31.1232 98.5334 31.4499C99.2511 31.7708 99.8112 32.2289 100.214 32.824C100.622 33.4134 100.827 34.1106 100.827 34.9159H97.7719C97.7719 34.5949 97.7048 34.3119 97.5706 34.0669C97.4422 33.8218 97.2468 33.6293 96.9842 33.4892C96.7216 33.3492 96.392 33.2792 95.9952 33.2792C95.6101 33.2792 95.2862 33.3375 95.0237 33.4542C94.7611 33.5709 94.5627 33.7284 94.4285 33.9268C94.2943 34.1194 94.2272 34.3324 94.2272 34.5658C94.2272 34.7583 94.2797 34.9334 94.3847 35.0909C94.4956 35.2426 94.6502 35.3856 94.8486 35.5198C95.0528 35.654 95.2979 35.7823 95.5838 35.9049C95.8756 36.0274 96.2023 36.147 96.5641 36.2637C97.2409 36.4796 97.8419 36.7218 98.3671 36.9902C98.8981 37.2527 99.3444 37.5532 99.7062 37.8917C100.074 38.2243 100.351 38.6035 100.538 39.0295C100.73 39.4554 100.827 39.9368 100.827 40.4736C100.827 41.0454 100.716 41.5531 100.494 41.9965C100.272 42.44 99.9542 42.8163 99.5399 43.1256C99.1256 43.429 98.6297 43.6595 98.052 43.817C97.4743 43.9746 96.8296 44.0533 96.1177 44.0533C95.4642 44.0533 94.8195 43.9716 94.1834 43.8083C93.5533 43.6391 92.9814 43.3823 92.468 43.0381C91.9545 42.688 91.5431 42.2416 91.2339 41.6989C90.9305 41.1505 90.7788 40.4999 90.7788 39.7472H93.8596C93.8596 40.1206 93.9092 40.4357 94.0084 40.6924C94.1076 40.9492 94.2535 41.1563 94.446 41.3138C94.6386 41.4655 94.8749 41.5764 95.155 41.6464C95.435 41.7106 95.756 41.7427 96.1177 41.7427C96.5087 41.7427 96.8237 41.6873 97.063 41.5764C97.3022 41.4597 97.4773 41.308 97.5881 41.1213C97.699 40.9287 97.7544 40.7187 97.7544 40.4911Z" fill="#1F9B4B"/>
<path d="M108.165 31.1348V43.8783H105.093V31.1348H108.165ZM111.998 31.1348V33.5067H101.347V31.1348H111.998Z" fill="#1F9B4B"/>
<path d="M119.31 40.4911C119.31 40.2927 119.281 40.1148 119.222 39.9572C119.164 39.7938 119.056 39.6421 118.899 39.5021C118.741 39.3621 118.514 39.222 118.216 39.082C117.924 38.9361 117.539 38.7844 117.061 38.6269C116.5 38.4401 115.961 38.2301 115.441 37.9967C114.922 37.7575 114.458 37.4803 114.05 37.1652C113.641 36.8443 113.318 36.4709 113.078 36.0449C112.839 35.6131 112.719 35.1113 112.719 34.5395C112.719 33.991 112.842 33.498 113.087 33.0603C113.332 32.6169 113.673 32.2405 114.111 31.9313C114.555 31.6162 115.074 31.377 115.669 31.2136C116.264 31.0444 116.915 30.9598 117.621 30.9598C118.554 30.9598 119.377 31.1232 120.089 31.4499C120.807 31.7708 121.367 32.2289 121.769 32.824C122.178 33.4134 122.382 34.1106 122.382 34.9159H119.328C119.328 34.5949 119.26 34.3119 119.126 34.0669C118.998 33.8218 118.802 33.6293 118.54 33.4892C118.277 33.3492 117.948 33.2792 117.551 33.2792C117.166 33.2792 116.842 33.3375 116.579 33.4542C116.317 33.5709 116.118 33.7284 115.984 33.9268C115.85 34.1194 115.783 34.3324 115.783 34.5658C115.783 34.7583 115.835 34.9334 115.94 35.0909C116.051 35.2426 116.206 35.3856 116.404 35.5198C116.608 35.654 116.854 35.7823 117.139 35.9049C117.431 36.0274 117.758 36.147 118.12 36.2637C118.797 36.4796 119.398 36.7218 119.923 36.9902C120.454 37.2527 120.9 37.5532 121.262 37.8917C121.629 38.2243 121.907 38.6035 122.093 39.0295C122.286 39.4554 122.382 39.9368 122.382 40.4736C122.382 41.0454 122.271 41.5531 122.049 41.9965C121.828 42.44 121.51 42.8163 121.095 43.1256C120.681 43.429 120.185 43.6595 119.608 43.817C119.03 43.9746 118.385 44.0533 117.673 44.0533C117.02 44.0533 116.375 43.9716 115.739 43.8083C115.109 43.6391 114.537 43.3823 114.024 43.0381C113.51 42.688 113.099 42.2416 112.789 41.6989C112.486 41.1505 112.334 40.4999 112.334 39.7472H115.415C115.415 40.1206 115.465 40.4357 115.564 40.6924C115.663 40.9492 115.809 41.1563 116.002 41.3138C116.194 41.4655 116.43 41.5764 116.711 41.6464C116.991 41.7106 117.312 41.7427 117.673 41.7427C118.064 41.7427 118.379 41.6873 118.619 41.5764C118.858 41.4597 119.033 41.308 119.144 41.1213C119.255 40.9287 119.31 40.7187 119.31 40.4911Z" fill="#1F9B4B"/>
<path fill-rule="evenodd" clip-rule="evenodd" d="M28.0936 0.19899C28.8615 0.168429 29.2387 0.153419 29.4153 0.334264C29.5858 0.508823 29.5696 0.865876 29.5375 1.56754C29.5266 1.80664 29.5139 2.08575 29.5061 2.41129C28.9637 2.44165 28.3843 2.45332 27.8068 2.46496C27.375 2.47366 26.9443 2.48234 26.5309 2.49879C24.8478 2.5616 23.167 2.67446 21.4907 2.83716C21.4338 2.84239 21.3767 2.84761 21.3194 2.85284C20.1583 2.95896 18.9213 3.07201 17.8097 3.40714C17.2173 3.58569 16.6407 3.85653 16.1651 4.25704C15.7771 4.58386 15.4483 4.98152 15.1651 5.40091C14.3976 6.5371 11.3533 12.1277 11.2804 13.2292C11.261 13.521 11.3247 13.7846 11.5228 14.0057C11.7601 14.2705 12.0856 14.3989 12.427 14.4632C12.9552 14.5625 13.4943 14.5743 14.0313 14.586L14.0316 14.586L14.0318 14.586L14.032 14.586L14.0322 14.5861L14.0324 14.5861C14.1576 14.5888 14.2826 14.5915 14.4073 14.5954C15.3632 14.6328 16.3198 14.6505 17.2764 14.6485L25.2681 14.6511C25.5819 14.6511 25.947 14.6472 26.3353 14.6431C27.4187 14.6316 28.6824 14.6182 29.5139 14.6819C29.5397 15.4413 29.533 16.2874 29.5265 17.1053L29.5265 17.1057L29.5265 17.1076V17.108V17.1084L29.5265 17.1088C29.5235 17.4823 29.5206 17.8498 29.5209 18.2005L29.5242 25.4462L29.5169 35.8703C29.5168 36.0158 29.5206 36.2832 29.5255 36.6211L29.5255 36.6216C29.5452 37.9852 29.5816 40.4958 29.4376 40.7747C29.2126 40.8606 27.098 40.8396 26.0024 40.8288L26.0015 40.8288C25.7497 40.8263 25.5518 40.8243 25.4432 40.8243L14.8817 40.8263C14.3858 40.8276 13.8632 40.8221 13.3335 40.8166L13.3299 40.8166L13.3293 40.8166H13.3291H13.3289C12.3259 40.8061 11.2977 40.7954 10.3784 40.8291C10.3587 41.1035 10.3617 41.3447 10.3645 41.5706C10.3714 42.1237 10.3772 42.5853 10.0469 43.2175C9.58724 43.9157 8.96746 44.0517 8.18929 44.0377C7.60447 44.0273 7.00701 44.0229 6.42207 44.0237L3.27263 44.0245C3.13327 44.0248 2.98513 44.028 2.8328 44.0313L2.83226 44.0313C2.35137 44.0417 1.82881 44.053 1.40923 43.9765C0.67579 43.8424 0.0549266 43.0307 0.0294023 42.3006C0.00807684 41.6907 0.0101419 41.0852 0.0122087 40.4793C0.0129103 40.2736 0.0136122 40.0678 0.0133992 39.8618L0.0180002 28.0182C0.0181528 27.643 0.0135934 27.266 0.00902588 26.8883C-0.0103669 25.2849 -0.0299076 23.6692 0.310409 22.124C0.934233 19.2914 2.62164 17.6198 4.99956 16.1675C5.2332 16.0248 5.47331 15.8869 5.71348 15.7489C5.99307 15.5883 6.27274 15.4277 6.54241 15.2594C6.1687 14.9332 6.14929 14.9297 5.66325 14.8407L5.65451 14.8391C5.33234 14.78 4.88641 14.762 4.39308 14.742C2.83733 14.6791 0.809948 14.5971 0.704275 13.1508C0.524279 10.4192 3.00717 10.1001 5.07495 9.83437L5.07539 9.83431C5.18732 9.81992 5.29802 9.80569 5.40702 9.79125C7.68919 9.4888 7.65264 10.8607 7.61094 12.4262C7.6024 12.7465 7.59365 13.075 7.60451 13.3989L8.14332 13.6726C8.71536 12.4069 9.37435 11.1468 10.0222 9.90806L10.0225 9.90743C10.1158 9.72895 10.2089 9.55092 10.3015 9.37338C10.8417 8.33313 11.3991 7.30195 11.9737 6.28034C12.0192 6.19923 12.0648 6.11778 12.1104 6.03613C12.6772 5.02236 13.2622 3.97605 14.0556 3.12737C14.7399 2.39537 15.5972 1.78719 16.5313 1.41993C18.8686 0.500923 24.2101 0.327044 27.1056 0.232787C27.2085 0.229436 27.3084 0.226185 27.4049 0.223005C27.6637 0.216101 27.8921 0.20701 28.0936 0.19899ZM20.8643 22.1128L20.8831 22.1263L20.8966 22.136L20.926 22.1572C21.6728 23.5338 22.899 25.5434 23.6709 26.7956C23.6968 26.8376 23.7226 26.8794 23.7483 26.9211L23.8069 27.0158C24.642 28.3668 25.3626 29.5324 25.4393 31.0687C25.5401 33.0886 24.2932 34.9261 22.4285 35.6155C21.9086 35.8087 21.4495 35.8727 20.8966 35.8895C20.14 35.8895 19.3949 35.7047 18.7262 35.3506C18.301 35.121 17.9361 34.8365 17.6094 34.4929C14.8909 31.6384 16.8056 28.6804 18.5477 25.989C18.8371 25.5419 19.1217 25.1023 19.3795 24.6716C19.8887 23.8211 20.3796 22.9769 20.8643 22.1128ZM4.09902 21.4114C4.09127 21.4119 4.08391 21.4122 4.07725 21.4126C3.52563 21.7608 3.46398 22.0341 3.42682 22.6592C3.28619 25.0228 4.87638 26.4075 7.10287 26.7855C8.31632 26.9916 11.3879 27.5057 12.4715 26.882C12.9641 26.5271 13.1624 26.233 13.3801 25.6682C11.9112 24.2135 7.78007 22.4685 5.78065 21.8073C5.75873 21.8 5.73622 21.7925 5.71319 21.7849C5.27302 21.639 4.64016 21.4291 4.19871 21.4084C4.17748 21.4074 4.13429 21.4096 4.09902 21.4114Z" fill="white"/>
</svg>
